<?xml version="1.0" encoding="utf-8"?>
<!-- Generator: Adobe Illustrator 22.1.0, SVG Export Plug-In . SVG Version: 6.00 Build 0)  -->
<svg version="1.1" id="Layer_1" xmlns="http://www.w3.org/2000/svg" xmlns:xlink="http://www.w3.org/1999/xlink" x="0px" y="0px"
	 viewBox="0 0 2000 500" style="enable-background:new 0 0 2000 500;" xml:space="preserve">
<style type="text/css">
	.st0{fill:#E9B034;}
	.st1{fill:#818181;}
</style>
<g>
	<g>
		<path class="st0" d="M166,252.4c1.9,0,3.4,0.7,4.8,2.1l13.4,14.5c-7.4,9.2-16.6,16.3-27.5,21.2s-24,7.3-39.2,7.3
			c-13.6,0-25.9-2.3-36.7-7c-10.9-4.7-20.2-11.1-27.9-19.4c-7.7-8.3-13.6-18.2-17.6-29.7c-4.1-11.5-6.1-24.1-6.1-37.7
			c0-13.8,2.3-26.4,6.9-37.8c4.5-11.4,11-21.3,19.3-29.6c8.3-8.3,18.2-14.8,29.7-19.3c11.5-4.7,24.3-6.9,38.3-6.9
			c13.6,0,25.5,2.2,35.7,6.5c10.2,4.3,19,10.1,26.2,17.3l-11.4,15.9c-0.7,1-1.6,1.9-2.6,2.7c-1.1,0.8-2.6,1.1-4.3,1.1
			c-2,0-3.9-0.8-6-2.3c-2-1.6-4.7-3.2-7.8-5c-3.1-1.8-7.1-3.4-11.9-5c-4.8-1.6-10.9-2.3-18.2-2.3c-8.7,0-16.5,1.6-23.7,4.5
			c-7.2,3-13.4,7.3-18.6,12.9c-5.2,5.5-9.2,12.3-12.2,20.3c-2.9,8-4.3,17-4.3,27c0,10.3,1.4,19.5,4.3,27.5c2.9,8,6.9,14.8,11.9,20.3
			c5,5.5,10.9,9.7,17.6,12.7c6.8,2.9,14.1,4.3,21.9,4.3c4.7,0,8.9-0.2,12.7-0.8c3.8-0.6,7.2-1.3,10.4-2.4s6.2-2.6,9-4.2
			c2.9-1.8,5.7-3.9,8.4-6.4c0.9-0.8,1.8-1.3,2.7-1.9C163.8,252.6,164.8,252.4,166,252.4z"/>
		<path class="st0" d="M201.4,295.5V165.4h18.4c3.2,0,5.4,0.6,6.8,1.8c1.2,1.2,2.1,3.2,2.6,6.1L231,189c4.7-8,10.1-14.4,16.3-19
			c6.2-4.7,13.3-7,21.1-7c6.4,0,11.8,1.4,16,4.4l-4.1,23.5c-0.2,1.6-0.8,2.6-1.7,3.2c-0.9,0.7-2,1-3.4,1c-1.2,0-3-0.3-5.2-0.9
			c-2.2-0.6-5.1-0.9-8.8-0.9c-6.5,0-12.1,1.8-16.8,5.4c-4.7,3.6-8.5,8.9-11.8,15.8v81.1h-31.3V295.5z"/>
		<path class="st0" d="M344.3,331.4c-0.9,2.2-2.1,3.9-3.7,5c-1.4,1.1-3.8,1.7-6.8,1.7h-23.3l24.4-52.2l-52.7-120.5h27.4
			c2.6,0,4.4,0.6,5.9,1.8c1.3,1.2,2.3,2.6,3,4.1l27.7,67.5c0.9,2.2,1.8,4.4,2.4,6.9c0.7,2.3,1.2,4.8,1.8,7.1
			c0.7-2.4,1.4-4.8,2.2-7.1c0.8-2.3,1.7-4.7,2.6-7l26.2-67.4c0.7-1.7,1.8-3.1,3.3-4.2c1.6-1.1,3.3-1.7,5.2-1.7h25.1L344.3,331.4z"/>
		<path class="st0" d="M426.6,338V165.4h19.2c2,0,3.8,0.4,5.2,1.4c1.4,0.9,2.3,2.3,2.8,4.3l2.6,12.1c5.2-6,11.3-10.9,18.1-14.5
			c6.8-3.8,14.8-5.5,24-5.5c7.1,0,13.6,1.4,19.4,4.4c5.9,3,11,7.2,15.2,12.9c4.2,5.7,7.5,12.5,9.9,20.9c2.3,8.2,3.4,17.6,3.4,28.4
			c0,9.8-1.3,18.8-3.9,27.1c-2.7,8.3-6.3,15.4-11.2,21.5c-4.9,6.1-10.8,10.9-17.6,14.3s-14.6,5.1-23.2,5.1c-7.3,0-13.6-1.1-18.8-3.3
			c-5.1-2.2-9.7-5.3-13.8-9.3v53.3h-31.3V338z M487.5,187.8c-6.5,0-12.1,1.3-16.6,4.1c-4.7,2.8-8.9,6.7-12.9,11.7v58.4
			c3.6,4.4,7.4,7.4,11.7,9.2c4.2,1.8,8.7,2.6,13.5,2.6c4.8,0,9-0.9,12.9-2.7c3.9-1.8,7.1-4.4,9.8-8.1c2.7-3.7,4.7-8.2,6.1-13.8
			s2.1-12.1,2.1-19.6c0-7.7-0.7-14.1-1.9-19.3c-1.2-5.3-3-9.5-5.2-12.9c-2.3-3.3-5.1-5.7-8.3-7.2
			C495.4,188.5,491.7,187.8,487.5,187.8z"/>
		<path class="st0" d="M606.1,297.6c-11.2,0-20-3.2-26-9.5c-6.1-6.4-9.1-15.2-9.1-26.4V189h-13.2c-1.7,0-3.1-0.6-4.3-1.7
			c-1.2-1.1-1.9-2.8-1.9-5v-12.4l21-3.4l6.5-35.5c0.3-1.7,1.1-3,2.3-3.9c1.2-0.9,2.8-1.4,4.7-1.4h16.2v40.9h34.3v22.3h-34.3v70.6
			c0,4.1,1,7.2,3,9.5c2,2.3,4.8,3.4,8.1,3.4c2,0,3.6-0.2,4.9-0.7c1.3-0.4,2.4-1,3.4-1.4c1-0.6,1.9-1,2.6-1.4
			c0.8-0.4,1.6-0.7,2.3-0.7c0.9,0,1.7,0.2,2.3,0.7c0.6,0.4,1.2,1.1,1.9,2.1l9.4,15.2c-4.5,3.8-9.8,6.7-15.8,8.7
			C618.5,296.6,612.4,297.6,606.1,297.6z"/>
		<path class="st1" d="M955.1,295.5h-26.4c-3,0-5.4-0.8-7.3-2.2c-1.9-1.4-3.3-3.3-4.1-5.5l-13.6-37.4h-76l-13.8,37.5
			c-0.7,2-2,3.8-4,5.3c-2,1.6-4.4,2.4-7.3,2.4h-26.4l72-183.4h34.8L955.1,295.5z M836.3,226.3h58.5l-22.3-61c-1-2.7-2.1-5.9-3.3-9.5
			c-1.2-3.7-2.4-7.7-3.7-12c-1.2,4.3-2.3,8.3-3.4,12.1c-1.1,3.8-2.2,7-3.3,9.8L836.3,226.3z"/>
		<path class="st1" d="M1019,295.5h-28.4l-51.7-130.2h26c2.3,0,4.2,0.6,5.8,1.7c1.6,1.1,2.7,2.4,3.2,4.2l25.1,69.6
			c1.4,4.1,2.7,8,3.7,11.9c1,3.9,1.9,7.8,2.6,11.7c0.8-3.9,1.7-7.8,2.6-11.7c1-3.9,2.2-7.9,3.8-11.9l25.7-69.6
			c0.6-1.7,1.7-3.1,3.2-4.2c1.6-1.1,3.3-1.7,5.4-1.7h24.7L1019,295.5z"/>
		<path class="st1" d="M1120.4,127.5c0,2.7-0.6,5.2-1.7,7.7c-1.1,2.3-2.6,4.4-4.3,6.2c-1.8,1.8-4,3.2-6.4,4.2
			c-2.4,1.1-5.1,1.6-7.9,1.6c-2.7,0-5.2-0.6-7.7-1.6c-2.4-1.1-4.5-2.4-6.3-4.2c-1.8-1.8-3.2-3.9-4.2-6.2c-1.1-2.3-1.6-4.9-1.6-7.7
			c0-2.8,0.6-5.4,1.6-7.9c1.1-2.4,2.4-4.5,4.2-6.3s3.9-3.2,6.3-4.2c2.4-1.1,5-1.6,7.7-1.6c2.8,0,5.4,0.6,7.9,1.6
			c2.4,1.1,4.5,2.4,6.4,4.2c1.8,1.8,3.3,3.9,4.3,6.3C1119.9,122.1,1120.4,124.6,1120.4,127.5z M1115.6,165.4v130.2h-31.3V165.4
			H1115.6z"/>
		<path class="st1" d="M1221.5,190.8c-0.9,1.3-1.8,2.3-2.7,2.9s-2.1,0.8-3.6,0.8c-1.6,0-3.1-0.4-4.9-1.2c-1.8-0.9-3.8-1.8-6-2.9
			c-2.3-1.1-4.9-2-7.8-2.9c-2.9-0.9-6.3-1.2-10.3-1.2c-6.2,0-11,1.3-14.5,3.9c-3.6,2.7-5.3,6.1-5.3,10.3c0,2.8,0.9,5.1,2.8,7
			c1.8,1.9,4.2,3.6,7.2,5c3,1.4,6.4,2.8,10.2,3.9c3.8,1.1,7.7,2.4,11.7,3.8c4,1.3,7.9,2.9,11.7,4.7c3.8,1.8,7.2,3.9,10.2,6.5
			c3,2.7,5.4,5.9,7.2,9.5c1.8,3.8,2.8,8.2,2.8,13.4c0,6.2-1.1,12-3.4,17.3c-2.3,5.3-5.7,9.9-10,13.6c-4.4,3.9-9.9,6.9-16.3,9
			c-6.4,2.1-13.9,3.2-22.3,3.2c-4.4,0-8.9-0.4-13.1-1.2c-4.2-0.8-8.3-1.9-12.3-3.3c-3.9-1.4-7.5-3.1-10.9-5.1
			c-3.3-2-6.3-4.1-8.8-6.3l7.2-11.9c0.9-1.4,2-2.6,3.3-3.3c1.2-0.8,2.9-1.1,4.8-1.1c2,0,3.8,0.6,5.5,1.7s3.8,2.3,6,3.6
			c2.3,1.2,5,2.4,8.1,3.6c3.1,1.1,7,1.7,11.8,1.7c3.8,0,6.9-0.4,9.5-1.3c2.7-0.9,4.9-2,6.5-3.4c1.8-1.4,3-3.1,3.8-5
			c0.8-1.9,1.2-3.9,1.2-5.9c0-3-0.9-5.5-2.8-7.4c-1.8-2-4.2-3.7-7.2-5.1c-3-1.4-6.4-2.8-10.3-3.9c-3.9-1.1-7.8-2.4-11.8-3.8
			c-4-1.3-8-2.9-11.8-4.8c-3.9-1.8-7.3-4.1-10.3-6.9c-3-2.8-5.4-6.2-7.2-10.3c-1.8-4.1-2.8-9-2.8-14.8c0-5.3,1.1-10.4,3.2-15.2
			c2.1-4.8,5.2-9,9.3-12.7c4.1-3.6,9.2-6.4,15.3-8.7c6.1-2.1,13.2-3.2,21.3-3.2c9,0,17.1,1.4,24.5,4.4c7.3,3,13.5,6.9,18.4,11.7
			L1221.5,190.8z"/>
		<path class="st1" d="M1303.8,163.4c9.8,0,18.5,1.6,26.4,4.7c7.9,3.1,14.6,7.5,20.2,13.3c5.5,5.8,9.9,12.8,13,21.1
			c3,8.3,4.5,17.5,4.5,27.7c0,10.3-1.6,19.6-4.5,28c-3,8.3-7.3,15.3-13,21.2c-5.5,5.9-12.3,10.3-20.2,13.4
			c-7.9,3.1-16.8,4.7-26.4,4.7c-9.8,0-18.5-1.6-26.5-4.7c-8-3.1-14.8-7.7-20.4-13.4c-5.7-5.9-10-12.9-13.1-21.2
			c-3.1-8.3-4.7-17.6-4.7-28c0-10.2,1.6-19.5,4.7-27.7c3.1-8.3,7.4-15.3,13.1-21.1c5.7-5.8,12.4-10.2,20.4-13.3
			S1294.1,163.4,1303.8,163.4z M1303.8,273.3c10.9,0,18.9-3.7,24.1-10.9c5.2-7.3,7.8-18,7.8-32c0-14.1-2.6-24.7-7.8-32.1
			s-13.2-11-24.1-11c-11,0-19.1,3.7-24.4,11.1c-5.2,7.4-7.9,18.1-7.9,32.1c0,14,2.7,24.6,7.9,32
			C1284.8,269.7,1292.9,273.3,1303.8,273.3z"/>
		<path class="st1" d="M1463,190.8c-0.9,1.3-1.8,2.3-2.7,2.9s-2.1,0.8-3.6,0.8c-1.6,0-3.1-0.4-4.9-1.2c-1.8-0.9-3.8-1.8-6-2.9
			c-2.3-1.1-4.9-2-7.8-2.9c-2.9-0.9-6.3-1.2-10.3-1.2c-6.2,0-11,1.3-14.5,3.9c-3.6,2.7-5.3,6.1-5.3,10.3c0,2.8,0.9,5.1,2.8,7
			c1.8,1.9,4.2,3.6,7.2,5c3,1.4,6.4,2.8,10.2,3.9c3.8,1.1,7.7,2.4,11.7,3.8c4,1.3,7.9,2.9,11.7,4.7c3.8,1.8,7.2,3.9,10.2,6.5
			c3,2.7,5.4,5.9,7.2,9.5c1.8,3.8,2.8,8.2,2.8,13.4c0,6.2-1.1,12-3.4,17.3c-2.3,5.3-5.7,9.9-10,13.6c-4.4,3.9-9.9,6.9-16.3,9
			c-6.4,2.1-13.9,3.2-22.3,3.2c-4.4,0-8.9-0.4-13.1-1.2c-4.2-0.8-8.3-1.9-12.3-3.3c-3.9-1.4-7.5-3.1-10.9-5.1
			c-3.3-2-6.3-4.1-8.8-6.3l7.2-11.9c0.9-1.4,2-2.6,3.3-3.3c1.2-0.8,2.9-1.1,4.8-1.1c2,0,3.8,0.6,5.5,1.7c1.8,1.1,3.8,2.3,6,3.6
			c2.3,1.2,5,2.4,8.1,3.6c3.1,1.1,7,1.7,11.8,1.7c3.8,0,6.9-0.4,9.5-1.3c2.7-0.9,4.9-2,6.5-3.4c1.8-1.4,3-3.1,3.8-5
			c0.8-1.9,1.2-3.9,1.2-5.9c0-3-0.9-5.5-2.8-7.4c-1.8-2-4.2-3.7-7.2-5.1c-3-1.4-6.4-2.8-10.3-3.9c-3.9-1.1-7.8-2.4-11.8-3.8
			c-4-1.3-8-2.9-11.8-4.8c-3.9-1.8-7.3-4.1-10.3-6.9c-3-2.8-5.4-6.2-7.2-10.3c-1.8-4.1-2.8-9-2.8-14.8c0-5.3,1.1-10.4,3.2-15.2
			c2.1-4.8,5.2-9,9.3-12.7c4.1-3.6,9.2-6.4,15.3-8.7c6.1-2.1,13.2-3.2,21.3-3.2c9,0,17.1,1.4,24.5,4.4c7.3,3,13.5,6.9,18.4,11.7
			L1463,190.8z"/>
		<path class="st1" d="M1482.2,278.3c0-2.7,0.4-5.1,1.4-7.4s2.3-4.4,4.1-6.1s3.8-3,6.1-4.1c2.3-1,4.9-1.6,7.7-1.6
			c2.7,0,5.1,0.6,7.4,1.6c2.3,1,4.4,2.3,6.1,4.1c1.7,1.7,3,3.8,4.1,6.1c1,2.3,1.6,4.9,1.6,7.4c0,2.7-0.6,5.2-1.6,7.5
			c-1,2.3-2.3,4.3-4.1,6c-1.7,1.7-3.8,3-6.1,4c-2.3,1-4.9,1.4-7.4,1.4c-2.7,0-5.2-0.4-7.7-1.4c-2.3-1-4.4-2.3-6.1-4
			c-1.8-1.7-3.1-3.7-4.1-6C1482.7,283.5,1482.2,281,1482.2,278.3z"/>
		<path class="st1" d="M1631.4,193c-0.9,1.2-1.9,2.1-2.8,2.8s-2.2,1-3.9,1c-1.6,0-3.2-0.4-4.7-1.4c-1.6-1-3.3-2.1-5.4-3.3
			c-2.1-1.2-4.7-2.3-7.5-3.3c-2.9-1-6.5-1.4-10.9-1.4c-5.5,0-10.3,1-14.4,3c-4.1,2-7.5,4.9-10.3,8.5c-2.8,3.8-4.8,8.2-6.1,13.5
			c-1.3,5.3-2,11.3-2,18c0,7,0.8,13.1,2.2,18.5c1.4,5.4,3.7,10,6.4,13.6s6.2,6.4,10.1,8.3c4,1.9,8.4,2.9,13.4,2.9s9-0.7,12.1-1.9
			c3.1-1.2,5.7-2.6,7.8-4.1c2.1-1.4,4-2.9,5.5-4.1c1.6-1.2,3.3-1.9,5.2-1.9c2.6,0,4.4,1,5.7,2.9l9,11.4c-3.4,4.1-7.2,7.4-11.3,10.2
			c-4.1,2.8-8.3,5-12.7,6.5c-4.3,1.7-8.9,2.8-13.5,3.4c-4.7,0.7-9.2,1-13.9,1c-8,0-15.6-1.6-22.7-4.5c-7.1-3-13.3-7.3-18.6-13.1
			c-5.3-5.8-9.4-12.8-12.5-21.1c-3.1-8.3-4.7-17.9-4.7-28.5c0-9.5,1.3-18.4,4.1-26.6c2.8-8.2,6.8-15.2,12.1-21.2
			c5.3-6,11.9-10.7,19.8-14c7.9-3.3,16.9-5.1,27.2-5.1c9.8,0,18.2,1.6,25.5,4.7s13.9,7.7,19.8,13.4L1631.4,193z"/>
		<path class="st1" d="M1709.7,163.4c9.8,0,18.5,1.6,26.4,4.7c7.9,3.1,14.6,7.5,20.2,13.3c5.5,5.8,9.9,12.8,13,21.1
			c3,8.3,4.5,17.5,4.5,27.7c0,10.3-1.6,19.6-4.5,28c-3,8.3-7.3,15.3-13,21.2c-5.5,5.9-12.3,10.3-20.2,13.4s-16.8,4.7-26.4,4.7
			c-9.8,0-18.5-1.6-26.5-4.7c-8-3.1-14.8-7.7-20.4-13.4c-5.7-5.9-10-12.9-13.1-21.2c-3.1-8.3-4.7-17.6-4.7-28
			c0-10.2,1.6-19.5,4.7-27.7c3.1-8.3,7.4-15.3,13.1-21.1c5.7-5.8,12.4-10.2,20.4-13.3C1691.1,164.9,1700,163.4,1709.7,163.4z
			 M1709.7,273.3c10.9,0,18.9-3.7,24.1-10.9c5.2-7.3,7.8-18,7.8-32c0-14.1-2.6-24.7-7.8-32.1s-13.2-11-24.1-11
			c-11,0-19.1,3.7-24.4,11.1c-5.2,7.4-7.9,18.1-7.9,32.1c0,14,2.7,24.6,7.9,32C1690.6,269.7,1698.7,273.3,1709.7,273.3z"/>
		<path class="st1" d="M1791.6,295.5V165.4h19.2c4.1,0,6.8,1.9,8,5.7l2,9.7c2.3-2.6,4.7-4.9,7.2-7c2.4-2.1,5.1-3.9,8-5.4
			c2.9-1.6,5.9-2.8,9.1-3.7c3.2-0.9,6.9-1.3,10.8-1.3c8.2,0,15,2.2,20.2,6.7c5.3,4.4,9.2,10.3,11.9,17.6c2-4.3,4.5-8,7.7-11.1
			c3-3.1,6.4-5.5,10-7.5c3.7-2,7.5-3.3,11.7-4.3c4.1-0.9,8.2-1.4,12.3-1.4c7.2,0,13.5,1.1,19.2,3.3c5.5,2.2,10.3,5.4,14.1,9.7
			c3.8,4.2,6.7,9.4,8.7,15.4c2,6.1,3,13.1,3,21v82.9h-31.3v-82.9c0-8.3-1.8-14.5-5.4-18.8c-3.7-4.2-9-6.3-16-6.3
			c-3.2,0-6.2,0.6-9,1.7s-5.2,2.7-7.2,4.8c-2.1,2.1-3.7,4.7-4.9,7.8c-1.2,3.1-1.8,6.8-1.8,10.8v82.9h-31.5v-82.9
			c0-8.7-1.8-15.1-5.2-19c-3.6-4-8.7-6-15.5-6c-4.4,0-8.7,1.1-12.7,3.3c-3.9,2.2-7.5,5.3-11,9.2v95.3h-31.4V295.5z"/>
	</g>
	<g>
		<path class="st0" d="M769.9,202.4c-3-8.3-7.3-15.3-13-21.1c-5.5-5.8-12.3-10.2-20.2-13.3c-7.9-3.1-16.8-4.7-26.4-4.7
			c-9.8,0-18.5,1.6-26.5,4.7c-8,3.1-14.8,7.5-20.4,13.3c-5.7,5.8-10,12.8-13.1,21.1c-3.1,8.3-4.7,17.5-4.7,27.7
			c0,10.3,1.6,19.6,4.7,28c3.1,8.3,7.4,15.3,13.1,21.2c5.7,5.9,12.4,10.3,20.4,13.4c8,3.1,16.8,4.7,26.5,4.7
			c9.8,0,18.5-1.6,26.4-4.7c7.9-3.1,14.6-7.7,20.2-13.4c5.5-5.9,9.9-12.9,13-21.2c3-8.3,4.5-17.6,4.5-28
			C774.4,220,772.9,210.7,769.9,202.4z M708.3,189.4c2,0.6,3.9,1,5.9,1.6c-0.9,3.8-1.8,7.5-2.8,11.3c1.9,0.4,3.7,0.9,5.5,1.3
			c0.9-3.8,1.8-7.4,2.8-11.3c2.2,0.6,4.4,1.2,6.8,1.8c-0.9,3.9-1.9,7.7-2.8,11.5c0.4,0.2,0.9,0.3,1.3,0.6c2.9,1.1,5.8,2.4,8.2,4.5
			c4,3.4,5.2,8.2,3.7,13.5c-1.2,4.1-3.8,6.7-7.7,7.8c-0.1,0-0.1,0-0.2,0.1c0,0-0.1,0-0.1,0.1c0.7,0.4,1.2,0.8,1.8,1.2
			c4.4,3,6.2,7.3,5.1,12.8c-0.6,2.9-1.6,5.5-3.2,8c-2.1,3-5.1,4.7-8.5,5.3c-3.4,0.7-6.9,0.3-10.3-0.2c-0.9-0.1-1.8-0.3-2.7-0.4
			c-0.4,2-1,3.9-1.4,5.9c-0.4,1.9-0.9,3.8-1.4,5.8c-2.2-0.6-4.4-1.1-6.8-1.8c0.9-3.9,1.9-7.7,2.8-11.5c-1.9-0.4-3.6-1-5.4-1.4
			c-0.9,3.9-1.9,7.7-2.8,11.5c-2.2-0.6-4.4-1.1-6.8-1.8c0.9-3.9,1.9-7.8,2.8-11.8c-4.5-1.2-9.1-2.3-13.6-3.6c1.1-2.7,2.2-5.3,3.3-8
			c1.6,0.3,3,0.8,4.5,1.1c2.1,0.6,3.2-0.2,3.7-2.3c1.3-5.7,2.8-11.3,4.1-17.1c1.1-4.4,2.1-8.9,3.2-13.3c0.4-2-0.3-3.8-2.1-4.4
			c-1.7-0.7-3.4-1-5.1-1.4c-0.2-0.1-0.4-0.1-0.7-0.2c0.6-2.4,1.2-4.9,1.8-7.4c4.5,1.2,9.1,2.3,13.6,3.6c0.9-3.6,1.7-7.1,2.6-10.5
			C707.6,190,707.9,189.7,708.3,189.4z"/>
		<path class="st0" d="M718.8,236.8c-2.3-1.7-4.9-2.7-7.5-3.4c-2.1-0.7-4.3-1.1-6.5-1.7c-1.2,5.2-2.4,10.4-3.8,15.8
			c3.1,0.7,6.1,1.4,9.1,1.9c2.4,0.4,5,0.4,7.4-0.2c2.7-0.8,4.4-3,4.7-5.9C722.1,240.4,720.8,238.4,718.8,236.8z"/>
		<path class="st0" d="M719,226.3c2.3-0.4,4.1-1.8,4.8-4.2c0.8-2.6,0.2-4.8-1.7-6.5c-0.7-0.6-1.3-1.1-2.1-1.6
			c-1.9-1.1-3.9-1.8-5.9-2.3c-1.4-0.4-3-0.8-4.5-1.1c-1.1,4.7-2.2,9.3-3.4,14.1c1.3,0.3,2.7,0.8,3.9,1
			C713.1,226.4,716,226.9,719,226.3z"/>
	</g>
</g>
<g>
	<path class="st1" d="M817.3,336.8h-27.2l-2.9,23.1h22.6l-0.4,3.1h-22.6l-2.9,23.7h27.3l-0.4,3.3h-31.3l7-56.5h31.3L817.3,336.8z"/>
	<path class="st1" d="M824.5,390.1l7-58.1h3.7l-7.1,58.1H824.5z"/>
	<path class="st1" d="M860.6,390.1l4.8-39.8h1.7c0.9,0,1.4,0.4,1.4,1.4l-1.1,11.1c2.1-4.1,4.4-7.3,7.2-9.7c2.7-2.3,5.5-3.4,8.5-3.4
		c2.7,0,4.5,0.9,5.7,2.6c1.1,1.7,1.7,4.1,1.7,7.2c0,0.9,0,1.9-0.1,2.9c1-2.1,2.2-4,3.4-5.5c1.2-1.6,2.6-2.9,3.9-4
		c1.3-1,2.8-1.9,4.2-2.3c1.4-0.6,2.9-0.8,4.3-0.8c2.9,0,4.9,0.9,6.1,2.7s1.9,4.3,1.9,7.7c0,0.2,0,0.6,0,0.9c0,0.3,0,0.9-0.1,1.6
		s-0.2,1.7-0.3,3c-0.1,1.2-0.3,3-0.6,5.1c-0.2,2.1-0.6,4.8-0.9,7.9c-0.3,3.1-0.8,7-1.3,11.4h-3.7l3-25.4c0.1-0.8,0.2-1.6,0.2-2.3
		c0-0.8,0.1-1.4,0.1-2.1c0-2.4-0.4-4.2-1.2-5.4c-0.8-1.2-2.2-1.9-4.3-1.9c-1.3,0-2.7,0.3-4,0.9c-1.3,0.6-2.7,1.6-4,2.7
		c-1.3,1.2-2.6,2.7-3.7,4.5c-1.1,1.9-2.2,4-3.1,6.4l-2.7,22.6H884l3-25.4c0.2-1.9,0.3-3.4,0.3-4.9c0-2.2-0.3-3.9-1.1-5.1
		c-0.8-1.1-2.1-1.8-4.1-1.8c-3,0-5.9,1.3-8.4,4.1c-2.6,2.8-4.9,6.7-6.8,11.8l-2.6,21.3h-3.8V390.1z"/>
	<path class="st1" d="M954.3,357.9c0,1.1-0.1,2.1-0.4,3.1c-0.3,1-0.8,1.9-1.6,2.8s-1.8,1.7-3,2.6c-1.3,0.8-2.9,1.6-4.9,2.1
		c-2,0.7-4.3,1.2-7.1,1.8c-2.8,0.6-6,1-9.8,1.3c0,0.6-0.1,1.1-0.1,1.7c0,0.6,0,1.1,0,1.7c0,4,0.9,7.1,2.7,9.3
		c1.8,2.2,4.5,3.3,8.1,3.3c1.4,0,2.7-0.1,3.8-0.4c1.1-0.3,2.1-0.7,3-1.2c0.9-0.4,1.7-1,2.3-1.6c0.7-0.6,1.3-1,1.8-1.6
		c0.6-0.4,1-0.9,1.3-1.2c0.3-0.3,0.8-0.4,1.1-0.4s0.6,0.1,0.9,0.4l0.9,1c-1.3,1.3-2.6,2.6-3.8,3.6c-1.2,1-2.4,1.8-3.8,2.4
		c-1.2,0.7-2.6,1.1-3.9,1.4c-1.3,0.3-2.8,0.4-4.3,0.4c-2.2,0-4.2-0.3-5.9-1.1c-1.7-0.8-3.2-1.8-4.3-3.1c-1.1-1.3-2.1-3-2.7-4.9
		c-0.7-1.9-0.9-4.1-0.9-6.5c0-2,0.2-4,0.6-6c0.4-2,1-4,1.8-5.9c0.8-1.9,1.8-3.7,2.9-5.2s2.4-3,4-4.2c1.4-1.2,3.1-2.1,5-2.9
		c1.8-0.7,3.8-1,5.9-1c2,0,3.6,0.2,4.9,0.8c1.3,0.6,2.4,1.2,3.3,2s1.4,1.7,1.8,2.7C954.1,356.2,954.3,357.1,954.3,357.9z
		 M943.4,352.6c-2.1,0-4.1,0.4-5.8,1.3c-1.7,0.9-3.2,2.1-4.5,3.7c-1.3,1.6-2.4,3.2-3.3,5.2c-0.9,2-1.6,4.1-2,6.2
		c3.3-0.3,6.3-0.8,8.8-1.3c2.4-0.6,4.5-1,6.2-1.6c1.7-0.6,3.1-1.1,4.1-1.8s1.9-1.3,2.4-2c0.6-0.7,1-1.3,1.2-2.1
		c0.2-0.7,0.3-1.4,0.3-2.2c0-0.6-0.1-1.1-0.3-1.8c-0.2-0.7-0.7-1.2-1.2-1.8c-0.6-0.6-1.3-1-2.3-1.3
		C946,352.8,944.9,352.6,943.4,352.6z"/>
	<path class="st1" d="M962.2,390.1l4.8-39.8h1.7c0.9,0,1.4,0.4,1.4,1.4l-1.1,11.9c1.8-4.3,3.9-7.7,6.2-10.1c2.3-2.4,4.8-3.6,7.4-3.6
		c1.1,0,2.2,0.2,3.3,0.7l-0.7,3.6c-1.2-0.4-2.3-0.7-3.4-0.7c-2.9,0-5.4,1.4-7.7,4.2c-2.3,2.8-4.2,6.9-5.9,12.2l-2.4,20.3h-3.7V390.1
		z"/>
	<path class="st1" d="M1013.4,386.6c-1.2,1-2.6,1.8-3.7,2.4c-1.2,0.6-2.4,1-3.7,1.2s-2.6,0.3-4,0.3c-2.3,0-4.3-0.4-6-1.2
		c-1.7-0.8-3.1-1.9-4.2-3.3c-1.1-1.4-2-3.1-2.6-5s-0.9-4.1-0.9-6.3c0-2.1,0.2-4.2,0.7-6.2c0.4-2.1,1.1-4,1.9-5.9
		c0.8-1.9,1.8-3.6,3-5.1s2.4-2.9,4-4.1c1.4-1.1,3.1-2,4.8-2.7s3.6-1,5.5-1c1.3,0,2.4,0.1,3.6,0.3c1,0.2,2,0.7,2.9,1.1
		c0.9,0.4,1.7,1,2.4,1.7c0.7,0.7,1.3,1.4,2,2.2l-1.1,1.3c-0.2,0.3-0.6,0.4-0.9,0.4c-0.2,0-0.6-0.2-1-0.7c-0.3-0.4-0.9-0.9-1.6-1.3
		c-0.7-0.4-1.6-1-2.6-1.3c-1-0.3-2.3-0.7-3.9-0.7c-2.2,0-4.3,0.6-6.2,1.8c-1.9,1.2-3.7,2.8-5,4.9c-1.4,2-2.6,4.3-3.3,7
		c-0.8,2.7-1.2,5.4-1.2,8.3c0,1.9,0.2,3.6,0.7,5.1c0.4,1.6,1,2.9,1.9,4.1c0.9,1.1,2,2,3.2,2.7c1.2,0.7,2.9,1,4.7,1
		c1.4,0,2.7-0.1,3.8-0.4c1.1-0.3,2.1-0.7,3-1.1s1.7-1,2.3-1.4c0.7-0.4,1.2-1,1.8-1.6c0.6-0.4,0.9-0.9,1.3-1.1c0.3-0.3,0.7-0.4,1-0.4
		s0.6,0.1,0.9,0.4l0.9,1C1016,384.4,1014.7,385.6,1013.4,386.6z"/>
	<path class="st1" d="M1052.5,390.1h-1.9c-0.6,0-0.9-0.1-1.1-0.3c-0.2-0.2-0.3-0.6-0.3-0.9l1.3-12.5c-1,2.1-2.1,4.1-3.3,5.8
		c-1.2,1.8-2.6,3.2-3.9,4.5c-1.3,1.3-2.8,2.2-4.3,2.9s-3.1,1-4.7,1c-1.7,0-3.1-0.3-4.4-1c-1.2-0.7-2.3-1.6-3.1-2.8
		c-0.8-1.2-1.4-2.7-1.9-4.3s-0.7-3.7-0.7-5.8c0-2.3,0.3-4.5,0.9-6.8s1.4-4.3,2.6-6.3c1.1-2,2.3-3.9,3.9-5.5c1.6-1.7,3.1-3.1,4.9-4.3
		c1.8-1.2,3.8-2.2,5.8-2.9c2-0.7,4.2-1,6.3-1c1.6,0,3.1,0.1,4.4,0.4c1.3,0.3,2.8,0.8,4.1,1.4L1052.5,390.1z M1035.6,387.4
		c1.6,0,3-0.4,4.5-1.3c1.4-0.9,2.9-2.1,4.2-3.7c1.3-1.6,2.6-3.4,3.8-5.7c1.2-2.2,2.2-4.7,3.2-7.3l2-16.2c-1.6-0.6-3.3-0.8-5.1-0.8
		s-3.6,0.3-5.2,0.9c-1.7,0.6-3.2,1.4-4.8,2.6s-2.9,2.3-4.1,3.8c-1.2,1.4-2.3,3.1-3.2,4.8c-0.9,1.8-1.6,3.6-2.1,5.5
		c-0.4,2-0.8,3.9-0.8,6c0,3.6,0.6,6.3,1.8,8.3C1031.1,386.3,1033.1,387.4,1035.6,387.4z"/>
	<path class="st1" d="M1093,390.1c-0.6,0-0.9-0.1-1.1-0.3c-0.2-0.2-0.3-0.6-0.3-0.9l1.3-12.7c-1,2.1-2.2,4.1-3.6,5.9
		c-1.3,1.8-2.7,3.3-4.1,4.5c-1.4,1.2-3,2.2-4.5,2.9c-1.6,0.7-3.2,1-4.8,1c-1.8,0-3.2-0.3-4.5-1c-1.3-0.7-2.4-1.7-3.3-2.9
		s-1.6-2.7-2-4.4c-0.4-1.8-0.7-3.7-0.7-5.9c0-2,0.2-4.1,0.7-6.2c0.4-2.1,1-4.2,1.8-6.1c0.8-1.9,1.8-3.9,2.9-5.5
		c1.1-1.8,2.4-3.2,3.9-4.5c1.4-1.3,3-2.3,4.7-3.1c1.7-0.8,3.6-1.1,5.4-1.1c2.1,0,4.1,0.4,6,1.4c1.8,1,3.3,2.3,4.4,4.2l2.9-23.4h3.7
		l-7.1,58.1H1093z M1077.2,387.5c1.6,0,3-0.4,4.5-1.2c1.6-0.9,3-2,4.4-3.6c1.4-1.6,2.8-3.4,4-5.5c1.2-2.2,2.3-4.5,3.3-7.2l1.4-11.5
		c-1.1-2.1-2.6-3.6-4.3-4.4c-1.7-0.9-3.4-1.3-5.3-1.3c-1.7,0-3.2,0.3-4.7,1s-2.8,1.6-4,2.8c-1.2,1.2-2.2,2.6-3.1,4.1
		c-0.9,1.6-1.7,3.2-2.3,4.9c-0.7,1.8-1.1,3.6-1.4,5.3c-0.3,1.9-0.4,3.7-0.4,5.3c0,3.6,0.7,6.3,2,8.3
		C1072.7,386.5,1074.7,387.5,1077.2,387.5z"/>
	<path class="st1" d="M1122.7,390.6c-2.1,0-4.1-0.3-5.8-1.1c-1.7-0.8-3.2-1.8-4.4-3.2c-1.2-1.4-2.2-3.1-2.9-5.1c-0.7-2-1-4.3-1-6.9
		c0-3.2,0.4-6.3,1.4-9.3c1-3,2.3-5.5,4.1-7.9c1.8-2.2,3.8-4.1,6.2-5.4c2.4-1.3,5-2,7.9-2c2.1,0,4.1,0.3,5.8,1.1
		c1.8,0.8,3.2,1.9,4.4,3.2c1.2,1.3,2.2,3.1,2.9,5.1c0.7,2,1,4.3,1,6.8c0,3.2-0.4,6.3-1.4,9.3c-1,3-2.3,5.5-4.1,7.9
		c-1.8,2.3-3.8,4.1-6.2,5.4C1128.2,390,1125.6,390.6,1122.7,390.6z M1123.1,387.6c2.3,0,4.4-0.6,6.3-1.8c1.9-1.2,3.6-2.8,4.9-4.9
		c1.3-2,2.4-4.3,3.1-6.9c0.8-2.6,1.1-5.2,1.1-8c0-4.2-1-7.5-2.9-9.9c-1.9-2.3-4.5-3.4-7.9-3.4c-1.6,0-3,0.2-4.3,0.8
		c-1.3,0.6-2.7,1.3-3.8,2.3s-2.2,2.1-3.1,3.4s-1.7,2.8-2.3,4.4c-0.7,1.6-1.1,3.3-1.4,5.1c-0.3,1.8-0.6,3.7-0.6,5.4
		c0,4.2,0.9,7.5,2.8,9.9C1117,386.4,1119.6,387.6,1123.1,387.6z"/>
	<path class="st1" d="M1177.4,367.3l-2.8,22.9h-4l6.9-56.5h13.5c5.5,0,9.7,1.2,12.4,3.8c2.8,2.4,4.1,6,4.1,10.5
		c0,2.9-0.4,5.5-1.4,7.9s-2.3,4.4-4.2,6.1c-1.9,1.7-4,3.1-6.5,4c-2.6,1-5.4,1.4-8.5,1.4h-9.4V367.3z M1181.2,336.7l-3.3,27.4h9.5
		c2.6,0,4.8-0.4,6.8-1.2c2-0.8,3.8-1.9,5.1-3.3c1.4-1.4,2.6-3.1,3.3-5c0.8-2,1.1-4.1,1.1-6.3c0-3.7-1.1-6.4-3.2-8.4
		c-2.1-2-5.4-3-9.8-3h-9.5V336.7z"/>
	<path class="st1" d="M1238.6,332.9c2,0,3.9,0.3,5.7,0.9c1.8,0.6,3.3,1.4,4.5,2.6c1.3,1.1,2.3,2.4,3.1,4.1c0.8,1.7,1.1,3.6,1.1,5.8
		c0,2.4-0.4,4.7-1.2,6.7s-1.9,3.9-3.2,5.7c-1.3,1.8-2.9,3.6-4.7,5.2c-1.8,1.7-3.7,3.4-5.7,5.3l-20.1,18.2c0.9-0.2,1.8-0.3,2.7-0.4
		c1-0.1,1.9-0.1,2.8-0.1h24.6c0.8,0,1.2,0.4,1.2,1.3l-0.3,2.1h-36.4l0.1-1.3c0-0.3,0.1-0.6,0.3-0.9c0.2-0.3,0.3-0.6,0.7-0.8
		l21.8-19.5c2-1.8,3.8-3.6,5.4-5.1c1.7-1.7,3.1-3.3,4.3-4.9c1.2-1.6,2.1-3.3,2.8-5.1c0.7-1.8,1-3.7,1-5.8c0-1.8-0.3-3.3-0.9-4.7
		c-0.6-1.3-1.4-2.4-2.4-3.3c-1-0.9-2.2-1.6-3.6-1.9c-1.3-0.3-2.8-0.7-4.3-0.7c-1.8,0-3.6,0.2-5.1,0.8c-1.6,0.6-3,1.2-4.2,2.2
		s-2.3,2.1-3.3,3.6c-0.9,1.3-1.7,2.9-2.2,4.5c-0.1,0.4-0.3,0.8-0.7,1c-0.3,0.2-0.7,0.3-1,0.3c-0.2,0-0.3,0-0.4,0l-1.9-0.3
		c0.7-2.4,1.6-4.5,2.8-6.4c1.2-1.9,2.7-3.4,4.3-4.8c1.7-1.3,3.6-2.3,5.7-3C1234,333.3,1236.3,332.9,1238.6,332.9z"/>
	<path class="st1" d="M1271.3,367.3l-2.8,22.9h-4l6.9-56.5h13.5c5.5,0,9.7,1.2,12.4,3.8c2.8,2.4,4.1,6,4.1,10.5
		c0,2.9-0.4,5.5-1.4,7.9s-2.3,4.4-4.2,6.1c-1.9,1.7-4,3.1-6.5,4c-2.6,1-5.4,1.4-8.5,1.4h-9.4V367.3z M1275.1,336.7l-3.3,27.4h9.5
		c2.6,0,4.8-0.4,6.8-1.2c2-0.8,3.8-1.9,5.1-3.3c1.4-1.4,2.6-3.1,3.3-5c0.8-2,1.1-4.1,1.1-6.3c0-3.7-1.1-6.4-3.2-8.4
		c-2.1-2-5.4-3-9.8-3h-9.5V336.7z"/>
	<path class="st1" d="M1325,390.1l4.8-39.8h1.7c0.9,0,1.4,0.4,1.4,1.4l-1.1,11.1c2.1-4.1,4.4-7.3,7.2-9.7c2.7-2.3,5.5-3.4,8.5-3.4
		c2.7,0,4.5,0.9,5.7,2.6c1.1,1.7,1.7,4.1,1.7,7.2c0,0.9,0,1.9-0.1,2.9c1-2.1,2.2-4,3.4-5.5c1.2-1.6,2.6-2.9,3.9-4
		c1.3-1,2.8-1.9,4.2-2.3c1.4-0.4,2.9-0.8,4.3-0.8c2.9,0,4.9,0.9,6.1,2.7c1.2,1.8,1.9,4.3,1.9,7.7c0,0.2,0,0.6,0,0.9
		c0,0.3,0,0.9-0.1,1.6s-0.1,1.7-0.3,3c-0.2,1.3-0.3,3-0.6,5.1c-0.2,2.1-0.6,4.8-0.9,7.9c-0.3,3.1-0.8,7-1.3,11.4h-3.7l3-25.4
		c0.1-0.8,0.2-1.6,0.2-2.3c0-0.8,0.1-1.4,0.1-2.1c0-2.4-0.4-4.2-1.2-5.4c-0.8-1.2-2.2-1.9-4.3-1.9c-1.3,0-2.7,0.3-4,0.9
		c-1.3,0.6-2.7,1.6-4,2.7c-1.3,1.1-2.6,2.7-3.7,4.5s-2.2,4-3.1,6.4l-2.7,22.6h-3.7l3-25.4c0.2-1.9,0.3-3.4,0.3-4.9
		c0-2.2-0.3-3.9-1.1-5.1c-0.8-1.2-2.1-1.8-4.1-1.8c-3,0-5.9,1.3-8.4,4.1c-2.6,2.8-4.8,6.7-6.8,11.8l-2.6,21.3h-3.8V390.1z"/>
	<path class="st1" d="M1415.7,390.1h-1.9c-0.6,0-0.9-0.1-1.1-0.3c-0.2-0.2-0.3-0.6-0.3-0.9l1.3-12.5c-1,2.1-2.1,4.1-3.3,5.8
		c-1.2,1.8-2.6,3.2-3.9,4.5c-1.3,1.3-2.8,2.2-4.3,2.9c-1.6,0.7-3.1,1-4.7,1c-1.7,0-3.1-0.3-4.4-1c-1.2-0.7-2.3-1.6-3.1-2.8
		c-0.8-1.2-1.4-2.7-1.9-4.3s-0.7-3.7-0.7-5.8c0-2.3,0.3-4.5,0.9-6.8s1.4-4.3,2.6-6.3c1.1-2,2.3-3.9,3.9-5.5c1.6-1.7,3.1-3.1,4.9-4.3
		c1.8-1.2,3.8-2.2,5.8-2.9c2-0.7,4.2-1,6.3-1c1.6,0,3.1,0.1,4.4,0.4c1.3,0.3,2.8,0.8,4.1,1.4L1415.7,390.1z M1398.8,387.4
		c1.6,0,3-0.4,4.5-1.3c1.4-0.9,2.9-2.1,4.2-3.7c1.3-1.6,2.6-3.4,3.8-5.7s2.2-4.7,3.2-7.3l2-16.2c-1.6-0.6-3.3-0.8-5.1-0.8
		s-3.6,0.3-5.2,0.9c-1.7,0.6-3.2,1.4-4.8,2.6c-1.6,1.1-2.9,2.3-4.1,3.8c-1.2,1.4-2.3,3.1-3.2,4.8c-0.9,1.8-1.6,3.6-2.1,5.5
		c-0.4,2-0.8,3.9-0.8,6c0,3.6,0.6,6.3,1.8,8.3C1394.3,386.3,1396.3,387.4,1398.8,387.4z M1420.9,332.9l-9.3,10.1
		c-0.4,0.4-0.9,0.7-1.4,0.7h-2.2l6.9-9.5c0.3-0.4,0.7-0.8,1-1c0.3-0.2,0.8-0.3,1.4-0.3h3.7V332.9z"/>
	<path class="st1" d="M1454.7,355.2c-0.2,0.3-0.6,0.6-0.9,0.6c-0.2,0-0.6-0.1-1-0.6c-0.3-0.3-0.9-0.7-1.6-1.1
		c-0.7-0.4-1.4-0.8-2.4-1.1c-1-0.3-2.2-0.6-3.7-0.6c-1.3,0-2.7,0.2-3.9,0.7c-1.2,0.4-2.2,1.1-3.1,1.8c-0.9,0.8-1.6,1.7-2.1,2.7
		c-0.6,1-0.8,2.1-0.8,3.2s0.2,2,0.8,2.8c0.6,0.8,1.2,1.4,2,1.9c0.9,0.6,1.8,1,2.9,1.4c1,0.4,2.1,0.8,3.2,1.2s2.2,0.9,3.2,1.3
		c1,0.4,2,1.1,2.9,1.8s1.6,1.6,2,2.6c0.6,1,0.8,2.2,0.8,3.7c0,1.7-0.3,3.3-1,5c-0.7,1.6-1.7,3-2.9,4.2c-1.2,1.2-2.8,2.2-4.5,3
		c-1.8,0.8-3.8,1.1-5.9,1.1c-2.6,0-4.8-0.4-6.4-1.3s-3.2-2.1-4.4-3.6l0.9-1.3c0.1-0.2,0.3-0.3,0.4-0.4c0.1-0.1,0.3-0.1,0.6-0.1
		c0.2,0,0.6,0.2,1,0.7c0.4,0.4,1,0.9,1.7,1.4c0.7,0.6,1.6,1,2.7,1.4c1.1,0.4,2.4,0.7,4.1,0.7c1.6,0,3-0.2,4.3-0.8
		c1.3-0.6,2.4-1.2,3.3-2.1s1.7-2,2.1-3.1c0.6-1.2,0.8-2.4,0.8-3.8c0-1.2-0.2-2.1-0.8-3c-0.6-0.8-1.2-1.4-2-2.1
		c-0.8-0.6-1.8-1.1-2.9-1.4c-1.1-0.4-2.1-0.8-3.2-1.2c-1.1-0.3-2.2-0.8-3.2-1.3c-1.1-0.4-2-1-2.9-1.7c-0.8-0.7-1.4-1.4-2-2.4
		c-0.6-1-0.8-2.1-0.8-3.6c0-1.6,0.3-3,1-4.4c0.7-1.4,1.6-2.7,2.8-3.8c1.2-1.1,2.7-2,4.3-2.7c1.7-0.7,3.4-1,5.4-1
		c2.2,0,4.2,0.3,5.9,1c1.7,0.7,3.1,1.8,4.4,3.1L1454.7,355.2z"/>
	<path class="st1" d="M1506.7,360.7c0,1.4-0.2,2.8-0.6,4c-0.3,1.2-0.8,2.3-1.3,3.3c-0.6,1-1.1,1.9-1.8,2.8c-0.7,0.9-1.2,1.7-1.8,2.6
		c-0.6,0.8-1,1.7-1.3,2.6s-0.6,1.8-0.6,2.7c0,0.8,0.1,1.6,0.4,2.2c0.3,0.7,0.7,1.3,1.2,2s1,1.3,1.6,1.9c0.6,0.6,1.1,1.3,1.6,2.1
		c0.4,0.7,0.9,1.6,1.2,2.3c0.3,0.9,0.4,1.8,0.4,2.9c0,1.7-0.4,3.3-1.3,4.9c-0.9,1.6-2,2.9-3.6,4.1c-1.6,1.2-3.4,2.1-5.5,2.9
		c-2.2,0.7-4.5,1.1-7.2,1.1c-2.1,0-4-0.2-5.8-0.7s-3.2-1-4.5-1.9c-1.2-0.8-2.2-1.8-2.9-3c-0.7-1.2-1-2.6-1-4c0-1.9,0.6-3.7,1.4-5.1
		c1-1.4,2.3-2.7,4.1-3.8c1.7-1,3.7-1.8,6-2.3c2.3-0.6,4.8-0.8,7.3-0.8c0.9,0,1.8,0,2.7,0.1c0.9,0.1,1.8,0.1,2.8,0.3
		c-0.4-0.7-0.9-1.2-1.1-2c-0.3-0.7-0.4-1.4-0.4-2.3c0-0.9,0.1-1.9,0.4-2.9c0.3-1,0.9-2.1,1.9-3.4c-1.1,0.8-2.2,1.3-3.4,1.7
		c-1.2,0.4-2.6,0.6-4,0.6c-1.6,0-2.9-0.2-4.2-0.7c-1.3-0.4-2.4-1.2-3.3-2.1s-1.7-2.1-2.2-3.4c-0.6-1.3-0.8-3-0.8-4.8
		c0-1.9,0.3-3.7,1-5.4c0.7-1.8,1.6-3.3,2.9-4.8c1.2-1.3,2.8-2.6,4.5-3.3c1.8-0.9,3.9-1.2,6.2-1.2c1.3,0,2.7,0.2,3.9,0.6
		c1.2,0.3,2.2,0.9,3.2,1.6h10.4l-0.1,1.3c0,0.2-0.1,0.6-0.3,0.7c-0.2,0.2-0.4,0.3-0.8,0.3l-6.4,0.6c0.4,0.8,0.9,1.8,1.1,2.8
		C1506.6,358.3,1506.7,359.4,1506.7,360.7z M1502.4,392.2c0-1.3-0.2-2.4-0.7-3.3c-0.4-0.9-1-1.8-1.6-2.6v0.1
		c-1.3-0.2-2.6-0.3-3.7-0.4c-1.2-0.1-2.3-0.1-3.4-0.1c-2.7,0-4.9,0.2-6.9,0.8c-2,0.6-3.6,1.1-4.9,2c-1.3,0.9-2.2,1.8-2.9,2.9
		c-0.7,1.1-1,2.3-1,3.6c0,1.1,0.2,2.2,0.8,3.1c0.6,0.9,1.2,1.7,2.2,2.2c1,0.6,2.1,1.1,3.4,1.3c1.3,0.3,2.9,0.4,4.5,0.4
		c2.1,0,4-0.3,5.7-0.9s3.1-1.3,4.3-2.2c1.2-0.9,2.1-2,2.8-3.2C1502,394.6,1502.4,393.4,1502.4,392.2z M1492.5,373.1
		c1.7,0,3.2-0.3,4.5-1.1c1.3-0.7,2.4-1.7,3.4-2.8c0.9-1.1,1.7-2.4,2.1-4c0.4-1.4,0.7-3,0.7-4.4c0-2.8-0.8-4.9-2.2-6.2
		c-1.4-1.4-3.4-2.1-5.9-2.1c-1.7,0-3.2,0.3-4.5,1c-1.3,0.7-2.4,1.6-3.3,2.7s-1.7,2.4-2.1,3.9c-0.4,1.4-0.7,2.9-0.7,4.4
		c0,2.8,0.7,5,2.1,6.4C1488.1,372.3,1490.1,373.1,1492.5,373.1z"/>
	<path class="st1" d="M1517.1,390.1l4.8-39.8h1.7c0.9,0,1.4,0.4,1.4,1.4l-1.1,11.9c1.8-4.3,3.9-7.7,6.2-10.1
		c2.3-2.3,4.8-3.6,7.4-3.6c1.1,0,2.2,0.2,3.3,0.7l-0.7,3.6c-1.2-0.4-2.3-0.7-3.4-0.7c-2.9,0-5.4,1.4-7.7,4.2
		c-2.2,2.8-4.2,6.9-5.9,12.2l-2.4,20.3h-3.7V390.1z"/>
	<path class="st1" d="M1571.2,390.1h-1.9c-0.6,0-0.9-0.1-1.1-0.3c-0.2-0.2-0.3-0.6-0.3-0.9l1.3-12.5c-1,2.1-2.1,4.1-3.3,5.8
		c-1.2,1.8-2.6,3.2-3.9,4.5s-2.8,2.2-4.3,2.9s-3.1,1-4.7,1c-1.7,0-3.1-0.3-4.4-1c-1.2-0.7-2.3-1.6-3.1-2.8c-0.8-1.2-1.4-2.7-1.9-4.3
		s-0.7-3.7-0.7-5.8c0-2.3,0.3-4.5,0.9-6.8c0.6-2.2,1.4-4.3,2.6-6.3c1.1-2,2.3-3.9,3.9-5.5c1.6-1.7,3.1-3.1,4.9-4.3
		c1.8-1.2,3.8-2.2,5.8-2.9c2-0.7,4.2-1,6.3-1c1.6,0,3.1,0.1,4.4,0.4c1.3,0.3,2.8,0.8,4.1,1.4L1571.2,390.1z M1554.3,387.4
		c1.6,0,3-0.4,4.5-1.3c1.4-0.9,2.9-2.1,4.2-3.7c1.3-1.6,2.6-3.4,3.8-5.7c1.2-2.2,2.2-4.7,3.2-7.3l2-16.2c-1.6-0.6-3.3-0.8-5.1-0.8
		s-3.6,0.3-5.2,0.9c-1.7,0.6-3.2,1.4-4.8,2.6s-2.9,2.3-4.1,3.8c-1.2,1.4-2.3,3.1-3.2,4.8c-0.9,1.8-1.6,3.6-2.1,5.5
		c-0.4,2-0.8,3.9-0.8,6c0,3.6,0.6,6.3,1.8,8.3C1549.8,386.3,1551.6,387.4,1554.3,387.4z"/>
	<path class="st1" d="M1585.4,390.1l4.8-39.8h1.7c0.9,0,1.3,0.4,1.3,1.4l-1.1,11.5c1.1-2.1,2.3-4,3.7-5.7c1.3-1.7,2.7-3.1,4.2-4.2
		c1.4-1.1,3-2,4.5-2.7c1.6-0.6,3.1-0.9,4.7-0.9c3,0,5.2,1,6.7,2.9c1.4,2,2.2,4.8,2.2,8.3c0,0.2,0,0.6,0,0.8c0,0.3,0,0.8-0.1,1.4
		c-0.1,0.7-0.2,1.6-0.3,2.8c-0.1,1.2-0.3,2.9-0.6,4.9c-0.2,2.1-0.6,4.7-0.9,7.8c-0.3,3.1-0.8,6.9-1.3,11.3h-3.8l3-25.4
		c0.1-1.2,0.2-2.3,0.2-3.4c0-2.7-0.6-4.8-1.6-6.1c-1-1.4-2.7-2.1-4.9-2.1c-1.4,0-3,0.3-4.5,1.1c-1.6,0.8-3,1.9-4.4,3.2
		c-1.4,1.4-2.8,3.1-4,5.1c-1.2,2-2.3,4.2-3.3,6.7l-2.4,21.1L1585.4,390.1L1585.4,390.1z"/>
	<path class="st1" d="M1654.5,390.1c-0.6,0-0.9-0.1-1.1-0.3c-0.2-0.2-0.3-0.6-0.3-0.9l1.3-12.7c-1,2.1-2.2,4.1-3.6,5.9
		c-1.3,1.8-2.7,3.3-4.1,4.5s-3,2.2-4.5,2.9s-3.2,1-4.8,1c-1.8,0-3.2-0.3-4.5-1c-1.3-0.7-2.4-1.7-3.3-2.9s-1.6-2.7-2-4.4
		c-0.4-1.8-0.7-3.7-0.7-5.9c0-2,0.2-4.1,0.7-6.2c0.4-2.1,1-4.2,1.8-6.1c0.8-1.9,1.8-3.9,2.9-5.5c1.1-1.8,2.4-3.2,3.9-4.5
		c1.4-1.3,3-2.3,4.7-3.1c1.7-0.8,3.6-1.1,5.4-1.1c2.1,0,4.1,0.4,6,1.4c1.8,1,3.3,2.3,4.4,4.2l2.9-23.4h3.7l-7.1,58.1H1654.5z
		 M1638.8,387.5c1.6,0,3-0.4,4.5-1.2c1.6-0.9,3-2,4.4-3.6c1.4-1.6,2.8-3.4,4-5.5c1.2-2.2,2.3-4.5,3.3-7.2l1.4-11.5
		c-1.1-2.1-2.6-3.6-4.3-4.4c-1.7-0.9-3.4-1.3-5.3-1.3c-1.7,0-3.2,0.3-4.7,1c-1.4,0.7-2.8,1.6-4,2.8c-1.2,1.2-2.2,2.6-3.1,4.1
		c-0.9,1.6-1.7,3.2-2.3,4.9c-0.7,1.8-1.1,3.6-1.4,5.3c-0.3,1.9-0.4,3.7-0.4,5.3c0,3.6,0.7,6.3,2,8.3
		C1634.2,386.5,1636.2,387.5,1638.8,387.5z"/>
	<path class="st1" d="M1700.7,357.9c0,1.1-0.1,2.1-0.4,3.1c-0.3,1-0.8,1.9-1.6,2.8s-1.8,1.7-3,2.6c-1.3,0.8-2.9,1.6-4.9,2.1
		c-2,0.7-4.3,1.2-7.1,1.8c-2.8,0.6-6,1-9.8,1.3c0,0.6-0.1,1.1-0.1,1.7c0,0.6,0,1.1,0,1.7c0,4,0.9,7.1,2.7,9.3
		c1.8,2.2,4.5,3.3,8.1,3.3c1.4,0,2.7-0.1,3.8-0.4s2.1-0.7,3-1.2c0.9-0.4,1.7-1,2.3-1.6c0.7-0.6,1.3-1,1.8-1.6c0.6-0.4,1-0.9,1.3-1.2
		c0.3-0.3,0.8-0.4,1.1-0.4s0.6,0.1,0.9,0.4l0.9,1c-1.3,1.3-2.6,2.6-3.8,3.6c-1.2,1-2.4,1.8-3.8,2.4c-1.2,0.7-2.6,1.1-3.9,1.4
		c-1.3,0.3-2.8,0.4-4.3,0.4c-2.2,0-4.2-0.3-5.9-1.1c-1.7-0.8-3.2-1.8-4.3-3.1s-2.1-3-2.7-4.9s-0.9-4.1-0.9-6.5c0-2,0.2-4,0.6-6
		c0.4-2,1-4,1.8-5.9c0.8-1.9,1.8-3.7,2.9-5.2s2.4-3,4-4.2c1.4-1.2,3.1-2.1,5-2.9c1.9-0.8,3.8-1,5.9-1c2,0,3.6,0.2,4.9,0.8
		c1.3,0.6,2.4,1.2,3.3,2s1.4,1.7,1.8,2.7C1700.5,356.2,1700.7,357.1,1700.7,357.9z M1689.9,352.6c-2.1,0-4.1,0.4-5.8,1.3
		c-1.7,0.9-3.2,2.1-4.5,3.7c-1.3,1.6-2.4,3.2-3.3,5.2c-0.9,2-1.6,4.1-2,6.2c3.3-0.3,6.3-0.8,8.8-1.3c2.4-0.6,4.5-1,6.2-1.6
		c1.7-0.6,3.1-1.1,4.1-1.8c1-0.7,1.9-1.3,2.4-2c0.6-0.7,1-1.3,1.2-2.1c0.2-0.7,0.3-1.4,0.3-2.2c0-0.6-0.1-1.1-0.3-1.8
		s-0.7-1.2-1.2-1.8c-0.6-0.6-1.3-1-2.3-1.3C1692.5,352.8,1691.2,352.6,1689.9,352.6z"/>
	<path class="st1" d="M1752.2,390.1c-0.6,0-0.9-0.1-1.1-0.3c-0.2-0.2-0.3-0.6-0.3-0.9l1.3-12.7c-1,2.1-2.2,4.1-3.6,5.9
		c-1.3,1.8-2.7,3.3-4.1,4.5c-1.4,1.2-3,2.2-4.5,2.9c-1.6,0.7-3.2,1-4.8,1c-1.8,0-3.2-0.3-4.5-1c-1.3-0.7-2.4-1.7-3.3-2.9
		s-1.6-2.7-2-4.4c-0.4-1.8-0.7-3.7-0.7-5.9c0-2,0.2-4.1,0.7-6.2c0.4-2.1,1-4.2,1.8-6.1c0.8-1.9,1.8-3.9,2.9-5.5
		c1.1-1.8,2.4-3.2,3.9-4.5c1.4-1.3,3-2.3,4.7-3.1c1.7-0.8,3.6-1.1,5.4-1.1c2.1,0,4.1,0.4,6,1.4c1.8,1,3.3,2.3,4.4,4.2l2.9-23.4h3.7
		l-7.1,58.1H1752.2z M1736.5,387.5c1.6,0,3-0.4,4.5-1.2c1.6-0.9,3-2,4.4-3.6c1.4-1.6,2.8-3.4,4-5.5c1.2-2.2,2.3-4.5,3.3-7.2
		l1.4-11.5c-1.1-2.1-2.6-3.6-4.3-4.4c-1.7-0.9-3.4-1.3-5.3-1.3c-1.7,0-3.2,0.3-4.7,1c-1.4,0.7-2.8,1.6-4,2.8
		c-1.2,1.2-2.2,2.6-3.1,4.1c-0.9,1.6-1.7,3.2-2.3,4.9c-0.7,1.8-1.1,3.6-1.4,5.3c-0.3,1.9-0.4,3.7-0.4,5.3c0,3.6,0.7,6.3,2,8.3
		C1731.9,386.5,1733.9,387.5,1736.5,387.5z"/>
	<path class="st1" d="M1798.3,357.9c0,1.1-0.1,2.1-0.4,3.1c-0.3,1-0.8,1.9-1.6,2.8c-0.8,0.9-1.8,1.7-3,2.6c-1.3,0.8-2.9,1.6-4.9,2.1
		c-2,0.7-4.3,1.2-7.1,1.8c-2.8,0.6-6,1-9.8,1.3c0,0.6-0.1,1.1-0.1,1.7c0,0.6,0,1.1,0,1.7c0,4,0.9,7.1,2.7,9.3
		c1.8,2.2,4.5,3.3,8.1,3.3c1.4,0,2.7-0.1,3.8-0.4c1.1-0.3,2.1-0.7,3-1.2c0.9-0.4,1.7-1,2.3-1.6c0.7-0.6,1.3-1,1.8-1.6
		c0.6-0.4,1-0.9,1.3-1.2s0.8-0.4,1.1-0.4c0.3,0,0.6,0.1,0.9,0.4l0.9,1c-1.3,1.3-2.6,2.6-3.8,3.6c-1.2,1-2.4,1.8-3.8,2.4
		c-1.2,0.7-2.6,1.1-3.9,1.4c-1.3,0.3-2.8,0.4-4.3,0.4c-2.2,0-4.2-0.3-5.9-1.1c-1.7-0.8-3.2-1.8-4.3-3.1c-1.1-1.3-2.1-3-2.7-4.9
		c-0.6-1.9-0.9-4.1-0.9-6.5c0-2,0.2-4,0.6-6c0.4-2,1-4,1.8-5.9c0.8-1.9,1.8-3.7,2.9-5.2c1.1-1.6,2.4-3,4-4.2c1.4-1.2,3.1-2.1,5-2.9
		c1.9-0.8,3.8-1,5.9-1c2,0,3.6,0.2,4.9,0.8c1.3,0.6,2.4,1.2,3.3,2s1.4,1.7,1.8,2.7C1798.2,356.2,1798.3,357.1,1798.3,357.9z
		 M1787.6,352.6c-2.1,0-4.1,0.4-5.8,1.3c-1.7,0.9-3.2,2.1-4.5,3.7c-1.3,1.6-2.4,3.2-3.3,5.2c-0.9,2-1.6,4.1-2,6.2
		c3.3-0.3,6.3-0.8,8.8-1.3c2.4-0.6,4.5-1,6.2-1.6c1.7-0.6,3.1-1.1,4.1-1.8c1-0.7,1.9-1.3,2.4-2c0.6-0.7,1-1.3,1.2-2.1
		c0.2-0.7,0.3-1.4,0.3-2.2c0-0.6-0.1-1.1-0.3-1.8c-0.2-0.7-0.7-1.2-1.2-1.8c-0.6-0.6-1.3-1-2.3-1.3
		C1790.1,352.8,1789,352.6,1787.6,352.6z"/>
	<path class="st1" d="M1807.2,390.1l7-58.1h3.7l-7.1,58.1H1807.2z"/>
	<path class="st1" d="M1841.7,404.2l6.5-53.9h1.7c0.9,0,1.4,0.4,1.4,1.4l-1.3,12.5c1-2.1,2.2-4.1,3.4-5.9c1.3-1.8,2.7-3.3,4.1-4.5
		c1.4-1.2,3-2.2,4.5-2.9s3.2-1,4.8-1c1.8,0,3.2,0.3,4.5,1c1.3,0.7,2.4,1.6,3.3,2.8s1.6,2.7,2,4.4c0.4,1.8,0.7,3.7,0.7,5.8
		c0,2-0.2,4.1-0.7,6.2c-0.4,2.1-1,4.2-1.8,6.1c-0.8,1.9-1.8,3.9-2.9,5.7c-1.1,1.8-2.4,3.3-3.9,4.5c-1.4,1.3-3,2.3-4.8,3.1
		c-1.7,0.8-3.6,1.1-5.4,1.1c-2.1,0-4.1-0.4-6-1.4c-1.8-1-3.3-2.3-4.4-4.2l-2.3,19.2H1841.7z M1865.8,352.8c-1.6,0-3,0.4-4.5,1.2
		c-1.6,0.8-3,2-4.4,3.6c-1.4,1.6-2.8,3.4-4,5.5c-1.2,2.1-2.3,4.5-3.3,7.2l-1.4,11.4c1.2,2.1,2.7,3.6,4.3,4.4
		c1.7,0.9,3.4,1.3,5.3,1.3c1.7,0,3.2-0.3,4.7-1c1.4-0.7,2.8-1.6,4-2.8c1.2-1.2,2.2-2.6,3.1-4.1s1.7-3.2,2.3-4.9
		c0.7-1.8,1.1-3.6,1.4-5.3c0.3-1.8,0.6-3.6,0.6-5.3c0-3.6-0.7-6.3-2-8.3C1870.3,353.8,1868.5,352.8,1865.8,352.8z"/>
	<path class="st1" d="M1912.5,390.1h-1.9c-0.6,0-0.9-0.1-1.1-0.3c-0.2-0.2-0.3-0.6-0.3-0.9l1.3-12.5c-1,2.1-2.1,4.1-3.3,5.8
		c-1.2,1.8-2.6,3.2-3.9,4.5c-1.3,1.3-2.8,2.2-4.3,2.9s-3.1,1-4.7,1c-1.7,0-3.1-0.3-4.4-1c-1.2-0.7-2.3-1.6-3.1-2.8
		c-0.8-1.2-1.4-2.7-1.9-4.3c-0.4-1.7-0.7-3.7-0.7-5.8c0-2.3,0.3-4.5,0.9-6.8c0.6-2.2,1.4-4.3,2.6-6.3c1.1-2,2.3-3.9,3.9-5.5
		c1.6-1.7,3.1-3.1,4.9-4.3c1.8-1.2,3.8-2.2,5.8-2.9s4.2-1,6.3-1c1.6,0,3.1,0.1,4.4,0.4c1.3,0.3,2.8,0.8,4.1,1.4L1912.5,390.1z
		 M1895.7,387.4c1.6,0,3-0.4,4.5-1.3c1.4-0.9,2.9-2.1,4.2-3.7c1.3-1.6,2.6-3.4,3.8-5.7c1.2-2.2,2.2-4.7,3.2-7.3l2-16.2
		c-1.6-0.6-3.3-0.8-5.1-0.8s-3.6,0.3-5.2,0.9c-1.7,0.6-3.2,1.4-4.8,2.6s-2.9,2.3-4.1,3.8c-1.2,1.4-2.3,3.1-3.2,4.8
		c-0.9,1.8-1.6,3.6-2.1,5.5c-0.4,2-0.8,3.9-0.8,6c0,3.6,0.6,6.3,1.8,8.3C1891.1,386.3,1893.1,387.4,1895.7,387.4z"/>
	<path class="st1" d="M1936.4,350.3l-4.9,39.7h-3.7l4.9-39.7H1936.4z M1945,332.9l-9.3,10.1c-0.4,0.4-0.9,0.7-1.4,0.7h-2.2l6.9-9.5
		c0.3-0.4,0.7-0.8,1-1c0.3-0.2,0.8-0.3,1.4-0.3h3.7V332.9z"/>
	<path class="st1" d="M1971.6,355.2c-0.2,0.3-0.6,0.6-0.9,0.6c-0.2,0-0.6-0.1-1-0.6c-0.3-0.3-0.9-0.7-1.6-1.1s-1.4-0.8-2.4-1.1
		c-1-0.3-2.2-0.6-3.7-0.6c-1.3,0-2.7,0.2-3.9,0.7c-1.2,0.4-2.2,1.1-3.1,1.8c-0.9,0.8-1.6,1.7-2.1,2.7c-0.6,1-0.8,2.1-0.8,3.2
		s0.2,2,0.8,2.8c0.6,0.8,1.2,1.4,2,1.9c0.9,0.6,1.8,1,2.9,1.4c1,0.4,2.1,0.8,3.2,1.2s2.2,0.9,3.2,1.3c1,0.4,2,1.1,2.9,1.8
		s1.6,1.6,2,2.6c0.6,1,0.8,2.2,0.8,3.7c0,1.7-0.3,3.3-1,5c-0.7,1.6-1.7,3-2.9,4.2c-1.2,1.2-2.8,2.2-4.5,3c-1.8,0.8-3.8,1.1-5.9,1.1
		c-2.6,0-4.8-0.4-6.4-1.3s-3.2-2.1-4.4-3.6l0.9-1.3c0.1-0.2,0.3-0.3,0.4-0.4c0.1-0.1,0.3-0.1,0.6-0.1s0.6,0.2,1,0.7
		c0.4,0.4,1,0.9,1.7,1.4c0.7,0.6,1.6,1,2.7,1.4s2.4,0.7,4.1,0.7c1.6,0,3-0.2,4.3-0.8c1.3-0.6,2.4-1.2,3.3-2.1s1.7-2,2.1-3.1
		c0.6-1.2,0.8-2.4,0.8-3.8c0-1.2-0.2-2.1-0.8-3c-0.6-0.8-1.2-1.4-2-2.1c-0.8-0.6-1.8-1.1-2.9-1.4c-1.1-0.4-2.1-0.8-3.2-1.2
		c-1.1-0.3-2.2-0.8-3.2-1.3c-1.1-0.4-2-1-2.9-1.7c-0.8-0.7-1.4-1.4-2-2.4c-0.6-1-0.8-2.1-0.8-3.6c0-1.6,0.3-3,1-4.4
		c0.7-1.4,1.6-2.7,2.8-3.8s2.7-2,4.3-2.7c1.7-0.7,3.4-1,5.4-1c2.2,0,4.2,0.3,5.9,1c1.7,0.7,3.1,1.8,4.4,3.1L1971.6,355.2z"/>
</g>
</svg>
