<?xml version="1.0" encoding="UTF-8" standalone="no"?>
<svg id="svg2" xmlns:rdf="http://www.w3.org/1999/02/22-rdf-syntax-ns#" xmlns="http://www.w3.org/2000/svg" viewBox="0 0 8023.132 1850.6728" height="1850.7" width="8023.3" version="1.1" xmlns:cc="http://creativecommons.org/ns#" xmlns:dc="http://purl.org/dc/elements/1.1/">
 <g id="g3357" transform="translate(.0237 -.00024858)">
  <g id="layer1" transform="matrix(3.6146,0,0,3.6146,4462.2,-478.61)">
   <path id="rect3023" fill="#428bca" transform="rotate(-90)" d="m-579.41-1234.5h382c36.01 0 65 28.99 65 65v382c0 36.01-28.99 65-65 65h-382c-36.01 0-65-28.99-65-65v-382c0-36.01 28.99-65 65-65z"/>
  </g>
  <g id="g3813" transform="matrix(3.6146,0,0,3.6146,4462.2,-2431.8)">
   <g id="g3105" font-family="sans-serif" transform="translate(-1238.4,124.41)" fill="#000000">
    <g id="text3011">
     <path id="path4739" fill="#ffffff" d="m134.75 871.62v-26.28q-49.32-5.04-88.56-39.24l26.28-31.32q30.24 26.28 62.28 31.32v-69.84q-40.68-9.72-59.76-25.56-18.72-15.84-18.72-46.8 0-31.32 21.6-51.12 21.96-19.8 56.88-21.6v-18h23.04v18.36q39.6 2.88 74.88 27l-23.4 33.12q-23.76-16.92-51.48-20.88v67.68h1.08q41.4 9.72 60.84 26.28t19.44 48.24q0 31.32-22.32 51.12t-59.04 21.6v25.92h-23.04zm23.04-64.44q17.28-1.8 27.36-10.08t10.08-20.88-7.92-19.8q-7.92-7.56-29.52-14.04v64.8zm-23.04-177.48q-16.2 1.44-25.56 9.72-9 7.92-9 20.16 0 11.88 7.2 19.08 7.2 6.84 27.36 13.32v-62.28z"/>
    </g>
    <g id="text3015">
     <path id="path4742" fill="#ffffff" d="m236.47 791.45v-30.702h37.128q11.781-38.199 41.769-61.404t68.187-23.205q56.763 0 89.964 41.055l-25.347 32.13q-15.708-16.779-29.988-23.562-13.923-6.783-34.629-6.783t-37.485 11.067q-16.422 10.71-24.633 30.702h84.966v30.702h-92.463q-0.357 4.284-0.357 13.209 0 8.568 1.071 16.422h91.749v30.702h-82.11q19.278 37.128 58.191 37.128 19.278 0 32.844-7.14 13.923-7.497 29.274-23.205l25.347 30.702q-33.201 41.055-87.465 41.055-37.128 0-66.045-21.063-28.56-21.42-41.055-57.477h-38.913v-30.702h32.13q-1.071-8.568-1.071-17.136t0.357-12.495h-31.416z"/>
    </g>
   </g>
  </g>
  <g id="layer3" transform="matrix(3.6146,0,0,3.6146,4462.2,-478.61)">
   <g id="text3262" fill="#ffffff">
    <path id="path4745" d="m-1188.9 591.53q-8.82-9.24-8.82-22.26t8.82-21.84q9.24-9.24 22.26-9.24t22.26 9.24q9.24 8.82 9.24 21.84t-9.24 22.26-22.26 9.24-22.26-9.24z"/>
    <path id="path4747" d="m-1063.6 591.53q-8.82-9.24-8.82-22.26t8.82-21.84q9.24-9.24 22.26-9.24t22.26 9.24q9.24 8.82 9.24 21.84t-9.24 22.26-22.26 9.24-22.26-9.24z"/>
    <path id="path4749" d="m-938.32 591.53q-8.82-9.24-8.82-22.26t8.82-21.84q9.24-9.24 22.26-9.24t22.26 9.24q9.24 8.82 9.24 21.84t-9.24 22.26-22.26 9.24-22.26-9.24z"/>
    <path id="path4751" d="m-813.02 591.53q-8.82-9.24-8.82-22.26t8.82-21.84q9.24-9.24 22.26-9.24t22.26 9.24q9.24 8.82 9.24 21.84t-9.24 22.26-22.26 9.24-22.26-9.24z"/>
   </g>
  </g>
 </g>
 <g id="layer2" transform="translate(1325.7 1028)" fill="#333333">
  <g id="text4600" stroke-width="2.9261px" fill="#333333">
   <path id="path4729" d="m1743.1 339.1q235.76 0 385.42-186.56l205.01 211.16q-243.96 274.71-576.08 274.71-330.07 0-545.33-209.11-213.21-209.11-213.21-526.88 0-319.82 217.31-533.03 219.36-213.21 535.08-213.21 352.62 0 590.43 268.56l-198.86 225.51q-151.71-188.61-377.22-188.61-180.41 0-309.57 118.91-127.11 116.86-127.11 317.77 0 198.86 120.96 319.82t293.16 120.96z"/>
   <path id="path4731" d="m2965.8 252.99q79.954 98.405 215.26 98.405t213.21-98.405q79.954-100.45 79.954-272.66v-791.34h319.82v801.59q0 311.62-172.21 479.72-172.21 166.06-440.77 166.06t-442.82-168.11q-172.2-168.11-172.2-477.67v-801.59h319.82v791.34q0 172.21 79.954 272.66z"/>
   <path id="path4733" d="m5161.3-811.01v284.96h-713.43v295.21h641.68v272.66h-641.68v297.26h735.99v282.91h-1055.8v-1433h1033.3z"/>
   <path id="path4735" d="m6275.2-811.01h385.42l-446.92 690.88 483.82 742.14h-389.52l-305.46-471.52-303.41 471.52h-385.42l481.77-733.94-448.97-699.08h383.37l272.66 424.37 272.66-424.37z"/>
  </g>
 </g>
</svg>
